<svg width="24" height="25" viewBox="0 0 24 25" fill="none" xmlns="http://www.w3.org/2000/svg">
<path d="M22 16.4371C22 20.0771 19.83 22.2471 16.19 22.2471H15C14.45 22.2471 14 21.7971 14 21.2471V15.4771C14 15.2071 14.22 14.9771 14.49 14.9771L16.25 14.9471C16.39 14.9371 16.51 14.8371 16.54 14.6971L16.89 12.7871C16.92 12.6071 16.78 12.4371 16.59 12.4371L14.46 12.4671C14.18 12.4671 13.96 12.2471 13.95 11.9771L13.91 9.52707C13.91 9.36707 14.04 9.22708 14.21 9.22708L16.61 9.18707C16.78 9.18707 16.91 9.05709 16.91 8.88708L16.87 6.48706C16.87 6.31706 16.74 6.18707 16.57 6.18707L13.87 6.22708C12.21 6.25708 10.89 7.61707 10.92 9.27707L10.97 12.0271C10.98 12.3071 10.76 12.5271 10.48 12.5371L9.28 12.5571C9.11 12.5571 8.98001 12.6871 8.98001 12.8571L9.01001 14.7571C9.01001 14.9271 9.14 15.0571 9.31 15.0571L10.51 15.0371C10.79 15.0371 11.01 15.2571 11.02 15.5271L11.11 21.2271C11.12 21.7871 10.67 22.2471 10.11 22.2471H7.81C4.17 22.2471 2 20.0771 2 16.4271V8.05707C2 4.41707 4.17 2.24707 7.81 2.24707H16.19C19.83 2.24707 22 4.41707 22 8.05707V16.4371Z" fill="white"/>
</svg>
