<svg width="24" height="25" viewBox="0 0 24 25" fill="none" xmlns="http://www.w3.org/2000/svg">
<path d="M16.19 2.24707H7.81C4.17 2.24707 2 4.41707 2 8.05707V16.4271C2 20.0771 4.17 22.2471 7.81 22.2471H16.18C19.82 22.2471 21.99 20.0771 21.99 16.4371V8.05707C22 4.41707 19.83 2.24707 16.19 2.24707ZM12 16.1271C9.86 16.1271 8.12 14.3871 8.12 12.2471C8.12 10.1071 9.86 8.36707 12 8.36707C14.14 8.36707 15.88 10.1071 15.88 12.2471C15.88 14.3871 14.14 16.1271 12 16.1271ZM17.92 7.12707C17.87 7.24707 17.8 7.35707 17.71 7.45707C17.61 7.54707 17.5 7.61707 17.38 7.66707C17.26 7.71707 17.13 7.74707 17 7.74707C16.73 7.74707 16.48 7.64707 16.29 7.45707C16.2 7.35707 16.13 7.24707 16.08 7.12707C16.03 7.00707 16 6.87707 16 6.74707C16 6.61707 16.03 6.48707 16.08 6.36707C16.13 6.23707 16.2 6.13707 16.29 6.03707C16.52 5.80707 16.87 5.69707 17.19 5.76707C17.26 5.77707 17.32 5.79707 17.38 5.82707C17.44 5.84707 17.5 5.87707 17.56 5.91707C17.61 5.94707 17.66 5.99707 17.71 6.03707C17.8 6.13707 17.87 6.23707 17.92 6.36707C17.97 6.48707 18 6.61707 18 6.74707C18 6.87707 17.97 7.00707 17.92 7.12707Z" fill="white"/>
</svg>
