<svg width="52" height="52" viewBox="0 0 52 52" fill="none" xmlns="http://www.w3.org/2000/svg">
<rect width="52" height="52" rx="10" fill="#333333"/>
<path d="M24.96 15.92C23.3067 15.92 21.8 16.32 20.44 17.12C19.08 17.92 17.9867 19.0133 17.16 20.4C16.3333 21.7867 15.92 23.2933 15.92 24.92C15.92 26.5467 16.3333 28.0533 17.16 29.44C17.9867 30.8267 19.08 31.92 20.44 32.72C21.8 33.52 23.3067 33.92 24.96 33.92C25.9733 33.92 26.96 33.7467 27.92 33.4C28.88 33.0533 29.76 32.5867 30.56 32L34.32 35.68C34.48 35.8933 34.7067 36 35 36C35.2933 36 35.5333 35.9067 35.72 35.72C35.9067 35.5333 36 35.2933 36 35C36 34.7067 35.8933 34.48 35.68 34.32L32 30.56C32.5867 29.76 33.0533 28.88 33.4 27.92C33.7467 26.96 33.92 25.9733 33.92 24.96C33.92 23.3067 33.52 21.7867 32.72 20.4C31.92 19.0133 30.8267 17.92 29.44 17.12C28.0533 16.32 26.56 15.92 24.96 15.92ZM24.96 17.92C26.24 17.92 27.4133 18.24 28.48 18.88C29.5467 19.52 30.3867 20.3733 31 21.44C31.6133 22.5067 31.92 23.6667 31.92 24.92C31.92 26.1733 31.6133 27.3467 31 28.44C30.3867 29.5333 29.5467 30.3867 28.48 31C27.4133 31.6133 26.24 31.92 24.96 31.92C23.68 31.92 22.5067 31.6133 21.44 31C20.3733 30.3867 19.52 29.5333 18.88 28.44C18.24 27.3467 17.92 26.1733 17.92 24.92C17.92 23.6667 18.24 22.5067 18.88 21.44C19.52 20.3733 20.3733 19.52 21.44 18.88C22.5067 18.24 23.68 17.92 24.96 17.92Z" fill="white"/>
</svg>
