<svg width="24" height="25" viewBox="0 0 24 25" fill="none" xmlns="http://www.w3.org/2000/svg">
<path d="M23.0306 7.52763L20.2275 10.3308C19.6612 16.8951 14.1253 21.997 7.49999 21.997C6.13874 21.997 5.01655 21.7814 4.16436 21.3558C3.47717 21.0117 3.19592 20.6433 3.12561 20.5383C3.06291 20.4442 3.02228 20.3373 3.00674 20.2253C2.99119 20.1134 3.00115 19.9994 3.03586 19.8918C3.07056 19.7843 3.12913 19.686 3.20717 19.6042C3.28521 19.5225 3.38072 19.4595 3.48655 19.4198C3.51092 19.4104 5.75905 18.547 7.18686 16.9036C6.39503 16.2525 5.70381 15.488 5.13561 14.6348C3.97311 12.9089 2.67186 9.91076 3.07311 5.43044C3.08583 5.28808 3.13896 5.15232 3.22625 5.03914C3.31354 4.92596 3.43136 4.84008 3.56582 4.79161C3.70028 4.74315 3.8458 4.73411 3.98522 4.76558C4.12465 4.79704 4.25218 4.86768 4.3528 4.96919C4.38561 5.00201 7.4728 8.07232 11.2472 9.06794V8.49701C11.2457 7.89831 11.3641 7.30538 11.5953 6.75313C11.8265 6.20089 12.1659 5.70048 12.5934 5.28138C13.0086 4.86675 13.5027 4.53948 14.0464 4.31889C14.5902 4.0983 15.1726 3.98885 15.7594 3.99701C16.5464 4.00477 17.3181 4.21606 17.9994 4.61032C18.6807 5.00459 19.2483 5.56842 19.6472 6.24701H22.5C22.6484 6.24689 22.7935 6.29081 22.917 6.37322C23.0404 6.45562 23.1366 6.5728 23.1935 6.70991C23.2503 6.84703 23.2651 6.99792 23.2361 7.14349C23.2071 7.28905 23.1356 7.42274 23.0306 7.52763Z" fill="white"/>
</svg>
