<svg width="52" height="52" viewBox="0 0 52 52" fill="none" xmlns="http://www.w3.org/2000/svg">
<circle cx="26" cy="26" r="26" fill="#333333"/>
<path d="M25.579 26.056C28.2178 26.056 30.357 23.9168 30.357 21.278C30.357 18.6392 28.2178 16.5 25.579 16.5C22.9402 16.5 20.801 18.6392 20.801 21.278C20.801 23.9168 22.9402 26.056 25.579 26.056Z" stroke="white" stroke-width="1.5" stroke-linecap="round" stroke-linejoin="round"/>
<path fill-rule="evenodd" clip-rule="evenodd" d="M18 32.7014C17.9987 32.3655 18.0738 32.0338 18.2197 31.7312C18.6773 30.8158 19.968 30.3307 21.0389 30.111C21.8113 29.9462 22.5943 29.8361 23.3822 29.7815C24.8408 29.6534 26.3079 29.6534 27.7666 29.7815C28.5544 29.8367 29.3374 29.9468 30.1098 30.111C31.1808 30.3307 32.4714 30.7701 32.9291 31.7312C33.2224 32.348 33.2224 33.064 32.9291 33.6808C32.4714 34.6419 31.1808 35.0813 30.1098 35.2918C29.3384 35.4635 28.5551 35.5767 27.7666 35.6305C26.5794 35.7311 25.3866 35.7495 24.1968 35.6854C23.9222 35.6854 23.6568 35.6854 23.3822 35.6305C22.5966 35.5773 21.8163 35.4641 21.0481 35.2918C19.968 35.0813 18.6865 34.6419 18.2197 33.6808C18.0746 33.3748 17.9995 33.0402 18 32.7014Z" stroke="white" stroke-width="1.5" stroke-linecap="round" stroke-linejoin="round"/>
</svg>
